<svg width="20" height="21" viewBox="0 0 20 21" fill="none" xmlns="http://www.w3.org/2000/svg">
<g clip-path="url(#clip0_1_2395)">
<path d="M11.3501 20H8.14106C7.60504 20 7.16901 19.564 7.16901 19.0279V11.7897H5.29676C4.76074 11.7897 4.32471 11.3535 4.32471 10.8176V7.71601C4.32471 7.17999 4.76074 6.74396 5.29676 6.74396H7.16901V5.19079C7.16901 3.65076 7.65259 2.34052 8.56731 1.40195C9.48616 0.459103 10.7702 -0.0391541 12.2808 -0.0391541L14.7282 -0.035179C15.2633 -0.0342617 15.6985 0.401771 15.6985 0.936873V3.81664C15.6985 4.35266 15.2627 4.7887 14.7268 4.7887L13.079 4.78931C12.5765 4.78931 12.4485 4.89006 12.4211 4.92094C12.376 4.97216 12.3224 5.11694 12.3224 5.51674V6.74381H14.603C14.7747 6.74381 14.941 6.78616 15.0839 6.86596C15.3923 7.03827 15.584 7.36407 15.584 7.71617L15.5828 10.8178C15.5828 11.3535 15.1468 11.7895 14.6108 11.7895H12.3224V19.0279C12.3224 19.564 11.8862 20 11.3501 20ZM8.34379 18.8252H11.1474V11.2637C11.1474 10.9058 11.4387 10.6147 11.7964 10.6147H14.408L14.4091 7.91874H11.7963C11.4385 7.91874 11.1474 7.62765 11.1474 7.26974V5.51674C11.1474 5.05778 11.1941 4.53582 11.5405 4.14351C11.9591 3.66926 12.6188 3.61453 13.0787 3.61453L14.5238 3.61392V1.1393L12.2799 1.13563C9.85232 1.13563 8.34379 2.68956 8.34379 5.19079V7.26974C8.34379 7.62749 8.05269 7.91874 7.69494 7.91874H5.49949V10.6147H7.69494C8.05269 10.6147 8.34379 10.9058 8.34379 11.2637V18.8252ZM14.7259 1.1396H14.726H14.7259Z" fill="#212121"/>
</g>
<defs>
<clipPath id="clip0_1_2395">
<rect width="20" height="20.0391" fill="white"/>
</clipPath>
</defs>
</svg>
