<svg width="22" height="22" viewBox="0 0 22 22" fill="none" xmlns="http://www.w3.org/2000/svg">
<path d="M0.698238 3.12727C0.698238 2.52352 0.923572 1.93577 1.33282 1.48711C1.79029 0.985461 2.44225 0.697814 3.12102 0.697814L6.37376 0.697814C7.60819 0.697814 8.64297 1.61904 8.78056 2.84063C8.86163 3.55956 9.00967 4.27358 9.22053 4.96318C9.48451 5.82624 9.2554 6.75591 8.62245 7.38898L7.30456 8.707C8.68552 11.2311 10.7903 13.3359 13.3139 14.7167L14.6319 13.3986C15.265 12.7657 16.1947 12.5365 17.0579 12.8007C17.7475 13.0115 18.4615 13.1596 19.1803 13.2406C20.402 13.3781 21.3232 14.4129 21.3232 15.6473L21.3232 18.8999C21.3232 19.5788 21.0356 20.2308 20.5339 20.6882C20.0304 21.1477 19.3515 21.3752 18.6716 21.3126C16.3377 21.0979 14.0842 20.4793 11.9736 19.4739C9.92171 18.4967 8.06364 17.1835 6.45068 15.5705C4.83784 13.9577 3.52436 12.0995 2.54724 10.0475C1.54205 7.93683 0.923321 5.68336 0.708435 3.34946C0.701509 3.27531 0.698238 3.20129 0.698238 3.12727ZM7.71671 5.68034C7.71671 5.59877 7.7045 5.51581 7.6797 5.43462C7.43976 4.65035 7.27145 3.83839 7.1793 3.02102C7.13361 2.6153 6.7873 2.30914 6.37376 2.30914L3.12102 2.30914C2.89065 2.30914 2.67841 2.40293 2.52332 2.57312C2.36609 2.74521 2.29144 2.96853 2.31309 3.20167C3.11913 11.9599 10.0613 18.9019 18.8194 19.7081C19.0525 19.7296 19.2758 19.6548 19.4481 19.4979C19.6181 19.3425 19.7119 19.1303 19.7119 18.8999L19.7119 15.6473C19.7119 15.2338 19.4059 14.8875 19 14.8416C18.1827 14.7496 17.3707 14.5813 16.5864 14.3415C16.2944 14.2521 15.9821 14.3273 15.7713 14.538L13.6254 16.684L13.1066 16.4259C9.87249 14.8168 7.20498 12.1489 5.59554 8.9142L5.33723 8.39543L7.48319 6.2496C7.63513 6.09765 7.71671 5.89271 7.71671 5.68034Z" fill="black"/>
</svg>
