<svg width="12" height="10" viewBox="0 0 12 10" fill="none" xmlns="http://www.w3.org/2000/svg">
<path d="M11.8248 0.769374C11.5905 0.535046 11.2106 0.535046 10.9762 0.769374L3.78786 7.95782L1.02477 5.19473C0.790461 4.9604 0.410586 4.96042 0.176234 5.19473C-0.0580938 5.42903 -0.0580938 5.80891 0.176234 6.04323L3.36359 9.23055C3.59783 9.46485 3.97798 9.46469 4.21212 9.23055L11.8248 1.61791C12.0591 1.3836 12.0591 1.0037 11.8248 0.769374Z" fill="white"/>
<path d="M11.8248 0.769374C11.5905 0.535046 11.2106 0.535046 10.9762 0.769374L3.78786 7.95782L1.02477 5.19473C0.790461 4.9604 0.410586 4.96042 0.176234 5.19473C-0.0580938 5.42903 -0.0580938 5.80891 0.176234 6.04323L3.36359 9.23055C3.59783 9.46485 3.97798 9.46469 4.21212 9.23055L11.8248 1.61791C12.0591 1.3836 12.0591 1.0037 11.8248 0.769374Z" stroke="white"/>
</svg>
