<svg width="20" height="20" viewBox="0 0 20 20" fill="none" xmlns="http://www.w3.org/2000/svg">
<g clip-path="url(#clip0_1_1224)">
<path d="M19.8289 0.172502C19.6631 0.00672084 19.4145 -0.0442556 19.197 0.0427755L0.368828 7.57393C0.153399 7.6601 0.00914133 7.86526 0.000860091 8.09717C-0.00738208 8.32905 0.121993 8.54393 0.330742 8.64518L7.75526 12.246L11.3561 19.6705C11.4543 19.873 11.6594 20.0008 11.8832 20.0008C11.8901 20.0008 11.8971 20.0007 11.9041 20.0004C12.136 19.9922 12.3412 19.8479 12.4273 19.6325L19.9586 0.804454C20.0456 0.586798 19.9946 0.338244 19.8289 0.172502ZM2.03539 8.16948L16.9817 2.19101L8.07432 11.0983L2.03539 8.16948ZM11.8318 17.9659L8.90295 11.9269L17.8104 3.01961L11.8318 17.9659Z" fill="#212121"/>
</g>
<defs>
<clipPath id="clip0_1_1224">
<rect width="20" height="20" fill="white"/>
</clipPath>
</defs>
</svg>
